<svg xmlns="http://www.w3.org/2000/svg" fill="none" viewBox="0 0 100 100">
  <path fill="#23d777" d="m61.539 30.37-1.652 9.37c-1.762 10-11.293 18-21.244 18h-8.159c-10.011 0-16.628-8.09-14.877-18l3.314-18.77h9.42l-3.313 18.77a6.992 6.992 0 0 0 1.405 6.088 7.006 7.006 0 0 0 5.713 2.542h8.16a10.77 10.77 0 0 0 6.58-2.553 10.748 10.748 0 0 0 3.58-6.077l2.483-14.07a5.849 5.849 0 0 1 5.537-4.7h17.43l1.08-6.15C78.448 6.63 72.992 0 64.783 0H24.738C16.548 0 8.72 6.63 7.288 14.82l-7.008 40C-1.16 63 4.285 69.63 12.494 69.63h40.045c8.199 0 16.018-6.63 17.45-14.81l4.314-24.45H61.54Z"/>
  <path fill="#1a57e6" d="M87.668 30.37h-4.004l-6.097 34.57c-1.442 8.18-9.26 14.82-17.45 14.82h-36.09l-.951 5.43C21.624 93.37 27.08 100 35.289 100h40.045c8.19 0 16.018-6.63 17.45-14.81l7.008-40c1.531-8.18-3.935-14.82-12.124-14.82Z"/>
</svg>
